<svg xmlns="http://www.w3.org/2000/svg" width="1061.4" height="862.2" data-name="Layer 1"><defs><linearGradient id="a" x1="589.4" x2="589.4" y1="881.1" y2="18.9" gradientUnits="userSpaceOnUse"><stop offset="0" stop-color="gray" stop-opacity=".3"/><stop offset=".5" stop-color="gray" stop-opacity=".1"/><stop offset="1" stop-color="gray" stop-opacity=".1"/></linearGradient></defs><path fill="none" stroke="#535461" stroke-miterlimit="10" stroke-width="2" d="M139.8 531.5s-58.7-115-33-212.5c10.9-41 9-84.3-7-123.6a329 329 0 0 0-27.7-53.3"/><path fill="#536dfe" d="M88 80.5c2.8 14.9-16.1 63.2-16.1 63.2s-35.1-38.2-38-53.1a27.5 27.5 0 0 1 54-10.1zM148.1 154.7c-5.8 14-47.9 44.4-47.9 44.4s-8.7-51.2-3-65.2a27.5 27.5 0 1 1 50.9 20.8zM172.7 296.3c-12 9.2-63.7 14-63.7 14s18.3-48.5 30.3-57.7a27.5 27.5 0 0 1 33.4 43.7zM167.1 407.5c-10.3 11.2-60.4 24.7-60.4 24.7s9.8-51 20.1-62a27.5 27.5 0 0 1 40.3 37.3zM44 212.6c12.7 8.4 64.6 9.8 64.6 9.8S87 175 74.4 166.8a27.5 27.5 0 1 0-30.3 45.8zM39.2 342.8c14.6 4.2 64.5-10 64.5-10S69.1 294.2 54.5 290a27.5 27.5 0 0 0-15.3 52.8zM51.9 470c13.7 6.6 65.2 1.1 65.2 1.1S89.5 427.2 76 420.6a27.5 27.5 0 1 0-24 49.4z"/><path fill="#fc6681" d="M88 80.5c2.8 14.9-16.1 63.2-16.1 63.2s-35.1-38.2-38-53.1a27.5 27.5 0 0 1 54-10.1zM148.1 154.7c-5.8 14-47.9 44.4-47.9 44.4s-8.7-51.2-3-65.2a27.5 27.5 0 1 1 50.9 20.8zM172.7 296.3c-12 9.2-63.7 14-63.7 14s18.3-48.5 30.3-57.7a27.5 27.5 0 0 1 33.4 43.7zM167.1 407.5c-10.3 11.2-60.4 24.7-60.4 24.7s9.8-51 20.1-62a27.5 27.5 0 0 1 40.3 37.3zM44 212.6c12.7 8.4 64.6 9.8 64.6 9.8S87 175 74.4 166.8a27.5 27.5 0 1 0-30.3 45.8zM39.2 342.8c14.6 4.2 64.5-10 64.5-10S69.1 294.2 54.5 290a27.5 27.5 0 0 0-15.3 52.8zM51.9 470c13.7 6.6 65.2 1.1 65.2 1.1S89.5 427.2 76 420.6a27.5 27.5 0 1 0-24 49.4z"/><path fill="none" stroke="#535461" stroke-miterlimit="10" stroke-width="2" d="M918.6 317.2S993.1 200 1002.1 150s26-96 26-96"/><path fill="#536dfe" d="M1045.1 154l-47 4s25 43 47-4z"/><path fill="#536dfe" d="M963.1 128l37.2 29.9s-48.2 19.2-37.2-29.8zM1051.1 113l-42.3 5.8s37.3 30.3 42.3-5.7zM981.1 98l28 19.7s-34 14.4-28-19.6zM1019.4 80.3s34.7-9.2 39.7-7.2 2 24-12 25-27.7-17.8-27.7-17.8zM996.1 54s22 21 23 26-18 17-28 0 5-26 5-26z"/><circle cx="1037.1" cy="56.1" r="10" fill="#ffd037"/><circle cx="1019.1" cy="51.1" r="10" fill="#ffd037"/><path fill="url(#a)" d="M1108.9 283.8c-4-48.2-25.8-94.7-60.2-121.9-36.8-29-83.4-34.5-125.3-52-43.2-18-81.7-49-124.6-68.4a254.8 254.8 0 0 0-219.7 5C532.4 70 485 125 433.2 129.2c-37 3-111.1-34.1-140 1-5.2 6.3-7.3 15.3-9.6 23.8-18.3 68.2-63.3 123-114.6 162.2-21.8 16.6-48.2 38.9-43.5 68.7 2.6 16 13.8 27.7 22.2 40.7a126.4 126.4 0 0 1 14.8 97l-.5 2-21.9 11c-11.5 5.9-24 12.8-28.7 24.8-4.9 12.6.2 26.7 7.1 38.3 5 8.3 10.8 16.2 15 24.8a66.7 66.7 0 0 0 1.2 8.4 64.8 64.8 0 0 0 4 12.1 72.5 72.5 0 0 1-12 39c-9 14.6-21 27-31.1 41-14 19-24.6 41.4-26.1 65.1s7 48.8 25.3 63.8c16.8 13.9 39.6 18 61.4 19q8.3.5 16.6.4c38.8 0 77.4-7.1 115.7-14.3l41.4-7.7c19-3.6 38.9-7.6 57-14.4a91.3 91.3 0 0 1-2.2 11.3 108 108 0 0 0-3.9 33.3h203.8l.2.5H711l-.2-.5h.2s-2-6-4.5-17.1a37.6 37.6 0 0 0 8.2-5.4 40 40 0 0 0 13.7-15.4s6.1-108.9.2-170.7C794 628.3 850.3 564.5 919 527.3c35.7-19.3 74.6-31.3 107.7-56.2a201.3 201.3 0 0 0 47.4-51.3c25-38.6 38.6-87.8 34.7-136z" transform="translate(-69.3 -19)"/><path fill="#536dfe" d="M231.3 119c-5.1 6.3-7.1 15-9.3 23.4-17.9 66.5-61.8 120-111.9 158.1-21.2 16.2-47 38-42.3 67 2.5 15.5 13.4 27 21.6 39.7 17 26.5 22.6 62.7 14.5 94.5-9.3 36.2-35.2 70-27.2 106.5 5 22.6 21.7 38.6 37.9 52.4q37.7 32.2 77.8 60.3c18 12.6 37 24.9 57.9 26.5 18.4 1.4 36.4-5.6 53.9-12.5 15.2-6 30.9-12.3 43.2-24.4 8-8 14.5-18.1 23.4-24.6 21-15.1 48-5.5 72 1A250.7 250.7 0 0 0 614.4 671c82.9-39 146-120.7 227.1-164.6 34.9-18.9 72.8-30.6 105-55a196.3 196.3 0 0 0 46.2-50c24.5-37.6 37.6-85.6 33.9-132.5s-25.2-92.3-58.7-118.8c-36-28.4-81.3-33.7-122.1-50.8-42.2-17.6-79.8-47.9-121.5-66.7A248.4 248.4 0 0 0 510 37.5c-45.5 23-91.6 76.6-142.2 80.7-36.1 2.9-108.3-33.3-136.5.9z"/><path d="M636.3 372v2a44 44 0 0 1-44.3 44.2 44 44 0 0 1-24-7 32.2 32.2 0 0 0 3.8.2 31.2 31.2 0 0 0 19.4-6.6 15.6 15.6 0 0 1-14.5-10.8 19.6 19.6 0 0 0 3 .2 16.5 16.5 0 0 0 4-.5 15.6 15.6 0 0 1-12.5-15.3v-.2a15.7 15.7 0 0 0 7 2 15.6 15.6 0 0 1-4.8-20.8 44.3 44.3 0 0 0 32.1 16.3 17.6 17.6 0 0 1-.4-3.6 15.6 15.6 0 0 1 27-10.6 30.7 30.7 0 0 0 10-3.8 15.5 15.5 0 0 1-7 8.6 31.2 31.2 0 0 0 9-2.4 33.5 33.5 0 0 1-7.7 8z" opacity=".2"/><path fill="#ffd5d8" d="M514.6 383.5c-32.6 95.3-29 127.4-29 127.4l7 54s-141 20-119-46c12.7-37.8 9.9-98.7 5.1-143.7-3.5-33.6-8-58.3-8-58.3l162 17c-7 18.2-13 34.7-18.1 49.6z"/><path d="M532.7 333.9c-7 18.2-13 34.7-18.2 49.6a107 107 0 0 1-135.7-8.3c-3.6-33.5-8.1-58.3-8.1-58.3z" opacity=".1"/><circle cx="451.7" cy="294.9" r="107" fill="#ffd5d8"/><path fill="#ffd5d8" d="M523.7 570.9l-63-27 11-84a136 136 0 0 1 27 6c24.3 7.9 57 25.6 64 64.8a1.4 1.4 0 0 1 0 .2c11 64-39 40-39 40z"/><path d="M562.7 530.7l-8.5 12.7-33.9 2.3v-22.8s-8-26.5-8-28.5-13.6-25.7-13.6-25.7l-5.5-4.3 5.6 1.5c24.3 7.8 57 25.6 63.9 64.8z" opacity=".1"/><path fill="#536dfe" d="M493.2 464.4l19.5 36.5v45l27 7-17-47s-19.5-37.5-29.5-41.5z"/><path fill="#536dfe" d="M316.7 850.9a105.3 105.3 0 0 1 3.8-32.5c12.8-46.9-8.8-199.5-8.8-199.5s6-130 86-152c76.4-21 130 65.6 134.7 73.5l.3.5 31.8-13.9h.2v.4c.2 7.1 5.7 21.2 13.3 37.4a474 474 0 0 1 29.9 83.7 484.5 484.5 0 0 1 14.4 96.5A459 459 0 0 0 638.7 851z"/><path d="M608 648.5l4.2 28.9-80-137h.2l31.8-14 .3.6.2.4c.3 7.1 5.8 21.1 13.3 37.3a474 474 0 0 1 30 83.8zM402.3 146.8c-42.2-4.7-86.8 5.6-119.6 32.5s-52 71.1-44.6 113c6.1 34.7 29.4 68 21.1 102.3-7.9 32.6-40.9 51.6-70.8 66.8l-104.3 53c-11.3 5.8-23.5 12.5-28 24.2-4.8 12.2.2 26 6.9 37.3s15.2 21.8 18.4 34.6c4 16.2-1.7 33.4-10.4 47.7S50.5 684.6 40.7 698c-13.8 18.7-24 40.6-25.5 63.7s6.7 47.5 24.6 62.3c16.5 13.5 38.7 17.5 60 18.5 42.5 2.1 85-5.7 127-13.6l40.3-7.5c37.2-7 77.5-15.6 101.6-44.7 28-33.6 24.8-82.5 19.3-125.9s-10.7-91.5 14.7-127c16.6-23.4 44.4-37.9 57.6-63.3 24.2-46.5-11-103.7.4-154.8 3.2-14.5 10-27.9 14.4-42.1 7.6-25.3 8.4-61.7-4.7-85.8-12-22-45.4-28.4-68.1-31z" opacity=".1"/><path fill="#536dfe" d="M400.3 146.8c-42.2-4.7-86.8 5.6-119.6 32.5s-52 71.1-44.6 113c6.1 34.7 29.4 68 21.1 102.3-7.9 32.6-40.9 51.6-70.8 66.8l-104.3 53c-11.3 5.8-23.5 12.5-28 24.2-4.8 12.2.2 26 6.9 37.3s15.2 21.8 18.4 34.6c4 16.2-1.7 33.4-10.4 47.7S48.5 684.6 38.7 698c-13.8 18.7-24 40.6-25.5 63.7s6.7 47.5 24.6 62.3c16.5 13.5 38.7 17.5 60 18.5 42.5 2.1 85-5.7 127-13.6l40.3-7.5c37.2-7 77.4-15.6 101.6-44.7 28-33.6 24.8-82.5 19.3-125.9s-10.7-91.5 14.7-127c16.6-23.4 44.4-37.9 57.6-63.3 24.2-46.5-11-103.7.4-154.8 3.2-14.5 10-27.9 14.4-42.1 7.6-25.3 8.4-61.7-4.7-85.8-12-22-45.4-28.4-68.1-31z"/><path d="M400.3 146.8c-42.2-4.7-86.8 5.6-119.6 32.5s-52 71.1-44.6 113c6.1 34.7 29.4 68 21.1 102.3-7.9 32.6-40.9 51.6-70.8 66.8l-104.3 53c-11.3 5.8-23.5 12.5-28 24.2-4.8 12.2.2 26 6.9 37.3s15.2 21.8 18.4 34.6c4 16.2-1.7 33.4-10.4 47.7S48.5 684.6 38.7 698c-13.8 18.7-24 40.6-25.5 63.7s6.7 47.5 24.6 62.3c16.5 13.5 38.7 17.5 60 18.5 42.5 2.1 85-5.7 127-13.6l40.3-7.5c37.2-7 77.4-15.6 101.6-44.7 28-33.6 24.8-82.5 19.3-125.9s-10.7-91.5 14.7-127c16.6-23.4 44.4-37.9 57.6-63.3 24.2-46.5-11-103.7.4-154.8 3.2-14.5 10-27.9 14.4-42.1 7.6-25.3 8.4-61.7-4.7-85.8-12-22-45.4-28.4-68.1-31z" opacity=".1"/><path fill="#536dfe" d="M493.2 464.4l75 137.7 52-26.7s-93-126-105-124-22 13-22 13z"/><path fill="#ffd5d8" d="M631.7 560.9l-17-50s-12-123-59-127 12 131 12 131 21 39 13 68 51-22 51-22z"/><path d="M391.8 654.6l116.9 141.3s112 80 143 21c0 0 13-161-2-199s-20-62-20-62-62 24-66 7l1.5 162.5s-70.5-259.5-138.5-227.5l-2.8 1.4a101.4 101.4 0 0 0-32.1 155.3z" opacity=".1"/><path fill="#536dfe" d="M395.8 651.6l116.9 141.3s112 80 143 21c0 0 9-161-6-199s-16-62-16-62-62 24-66 7l2.5 201.5s-71.5-298.5-139.5-266.5l-2.8 1.4a101.4 101.4 0 0 0-32.1 155.3z"/><circle cx="692.2" cy="115.4" r="8" fill="#fff"/><circle cx="666.2" cy="226.4" r="4" fill="#fff"/><circle cx="516.2" cy="115.4" r="4" fill="#fff"/><circle cx="183.7" cy="278.1" r="4" fill="#fff"/><circle cx="415.2" cy="567.4" r="4" fill="#fff"/><circle cx="144.2" cy="383.4" r="4" fill="#fff"/><circle cx="839.2" cy="145.4" r="4" fill="#fff"/><circle cx="612.2" cy="307.4" r="4" fill="#fff"/><circle cx="954.2" cy="255.4" r="4" fill="#fff"/><circle cx="692.7" cy="553.1" r="4" fill="#fff"/><path fill="#fff" d="M839.2 264.2h-8.3v-8.3h-1.4v8.3h-8.3v1.4h8.3v8.3h1.4v-8.3h8.3v-1.4zM423.2 760.6h-3.7v-3.7h-.6v3.7h-3.7v.6h3.7v3.7h.6v-3.7h3.7v-.6zM588.2 647.6h-3.7v-3.7h-.6v3.7h-3.7v.6h3.7v3.7h.6v-3.7h3.7v-.6zM834.2 417.6h-3.7v-3.7h-.6v3.7h-3.7v.6h3.7v3.7h.6v-3.7h3.7v-.6zM666.2 475.6h-3.7v-3.7h-.6v3.7h-3.7v.6h3.7v3.7h.6v-3.7h3.7v-.6zM191.2 413.6h-3.7v-3.7h-.6v3.7h-3.7v.6h3.7v3.7h.6v-3.7h3.7v-.6zM592.2 178.6h-3.7v-3.7h-.6v3.7h-3.7v.6h3.7v3.7h.6v-3.7h3.7v-.6zM269.2 143.6h-3.7v-3.7h-.6v3.7h-3.7v.6h3.7v3.7h.6v-3.7h3.7v-.6z"/><path d="M721 153.5l-5.8 14.7v60.2h20.5v11h11.5l10.9-11h16.7l22.4-22.4v-52.5zm68.5 48.7L776.8 215h-20.5l-10.9 10.9v-11H728v-53.7h61.5zm-12.8-26.3v22.4H769v-22.4zm-20.5 0v22.4h-7.7v-22.4zM858.9 344l-16.4-7 22-52.9 16.4 6.9zm16.8-63.6a10.4 10.4 0 1 1 13.5-5.7 10.4 10.4 0 0 1-13.5 5.7zm44.8 89.1l-16.4-6.8 10.7-25.8c2.5-6.1 5.7-14-2.7-17.5s-12.7 2.6-15.5 9.5l-11 26.2-16.4-6.8 22-53L907 302l-3 7.2h.2c4-3.2 11.1-5.3 19.1-2 16.7 7 15.2 19.1 9.3 33.4l-12.1 29zM572.3 67a16.4 16.4 0 1 0 16.4 16.3A16.3 16.3 0 0 0 572.3 67zm0 27a10.6 10.6 0 1 1 10.6-10.7A10.7 10.7 0 0 1 572.3 94zM593 66.3a3.8 3.8 0 1 1-3.8-3.8 3.8 3.8 0 0 1 3.8 3.8zm10.9 3.9c-.3-5.1-1.4-9.7-5.2-13.4s-8.2-5-13.4-5.2c-5.2-.3-21-.3-26.3 0-5 .3-9.6 1.5-13.4 5.2s-4.9 8.2-5.1 13.4c-.3 5.2-.3 21 0 26.3.2 5 1.4 9.6 5.2 13.3s8.2 5 13.3 5.2c5.3.3 21 .3 26.3 0 5.2-.2 9.7-1.4 13.4-5.2s5-8.2 5.2-13.3c.3-5.3.3-21 0-26.3zm-6.8 32a10.8 10.8 0 0 1-6.1 6c-4.2 1.7-14.2 1.3-18.8 1.3s-14.6.4-18.8-1.3a10.8 10.8 0 0 1-6-6C545.7 98 546 88 546 83.4s-.3-14.7 1.3-18.9a10.8 10.8 0 0 1 6-6c4.3-1.7 14.3-1.3 18.9-1.3s14.6-.4 18.8 1.3a10.8 10.8 0 0 1 6 6c1.7 4.2 1.3 14.2 1.3 18.9s.4 14.5-1.2 18.7zM789.2 435v58.8a3.6 3.6 0 0 1-3.6 3.6h-16.8v-25.6h8.5l1.3-10h-9.8v-6.3c0-3 .8-4.9 4.9-4.9h5.3v-8.9a71 71 0 0 0-7.7-.4c-7.6 0-12.8 4.7-12.8 13.2v7.3h-8.6v10h8.6v25.6h-31.6a3.6 3.6 0 0 1-3.7-3.6V435a3.6 3.6 0 0 1 3.7-3.7h58.7a3.6 3.6 0 0 1 3.6 3.7zM953.9 177.2a10.5 10.5 0 0 0-5.5-9c-5.9-3.2-31.2-9.3-31.2-9.3s-25.4-6.1-32.2-6a10.5 10.5 0 0 0-8.9 5.5c-3.2 6-6.4 19.3-6.4 19.3s-3.2 13.3-3 20a10.3 10.3 0 0 0 5.5 8.9c5.9 3.2 31.2 9.3 31.2 9.3s25.4 6.1 32.2 6a10.3 10.3 0 0 0 8.9-5.4c3.2-6 6.4-19.3 6.4-19.3s3.2-13.3 3-20zM899 197.5l5.8-24.1 18.3 17.2-24.1 7z" opacity=".2"/></svg>