<svg xmlns="http://www.w3.org/2000/svg" viewBox="0 0 695.4 566.8"><defs><style>.cls-1{fill:#89c5cc}.cls-2{fill:#dde3e9}.cls-3{fill:#c1dee2}.cls-4{fill:#69a1ac}.cls-5{fill:#f2f2f2}.cls-6{fill:#fff}.cls-7{fill:#c5cfd6}.cls-8{fill:#afb9c5}.cls-9{fill:#e5c4a6}.cls-10{fill:#191847}.cls-12{fill:#b28b67}.cls-14{fill:#e4e4e4}</style></defs><g id="Twisted_Leaf" data-name="Twisted Leaf" transform="translate(-.2 -.6)"><path id="Twisted_Leaf-2" d="M831 167.2a8.2 8.2 0 0 0-2.4-.6 42.5 42.5 0 0 0-7.5-.6 149.7 149.7 0 0 0-23.3 1.9c-4.9.8-10.8 3.4-15.6 2-8.4-2.5-16.9-2.4-24.9 1.1a33.4 33.4 0 0 0-16 16 38.6 38.6 0 0 0-3 7l-.8 1.6-1.6 4.4c-.2.6-.7 2 0 2.3a42 42 0 0 0-2.7 5.3c-2.1 5.2-4.5 11-5.2 16.6a24 24 0 0 0 0 6.2c0 1 0 3 .8 3.8 1.6 1.7 2.4-.6 2.2-1.7a45 45 0 0 1 4.4-24.2 48.9 48.9 0 0 1 9.1-14A37.5 37.5 0 0 1 755 186a169 169 0 0 1 15.9-7.3c3.5-1.4 7-2.9 10.7-4.1a11.6 11.6 0 0 1 3-1c1.9 0 4.5 1.2 6.4 1.7 6 1.6 12.1 3.6 18.3 4.4a25.5 25.5 0 0 0 11.5-1.3 11.5 11.5 0 0 0 1.8-.9 27 27 0 0 0 7.7-4 29.8 29.8 0 0 0 3.6-3.6 1.8 1.8 0 0 0 .5-1.1c.2-.2.4-.3.4-.5.3-1.2-2.2-1.2-3.8-1.1" class="cls-1" data-name="Twisted Leaf" transform="translate(-146.3 -33.3)"/><path id="Fill_16" d="M64.5 288.7q-2.3 1.7-4.4 3.5c-1.2 1-3.1 2-3.5 3.4-.4 1.5.9 2.8 1.9 3.7a32.5 32.5 0 0 0 19.2 8.3c11.7.8 21.9-2 32-7.3 7.1-3.8 11.8-9.4 12.9-17a91.1 91.1 0 0 1 23.6 13.2 59.6 59.6 0 0 1 9.1 9c1.8 2.1 3.5 4.3 5 6.6.8 1 1.5 2.7 2.6 3.2a2 2 0 0 0 2.8-1.7c0-1.1-1.3-2.5-2-3.4a136.2 136.2 0 0 0-8.8-11.6 69.2 69.2 0 0 0-16.2-12.8 76.5 76.5 0 0 0-37.8-11.6 44 44 0 0 0-23 6.5 114.7 114.7 0 0 0-13.4 8" class="cls-2" data-name="Fill 16" transform="translate(-11.3 -55)"/><path id="Leaf" d="M164 224.4a313.3 313.3 0 0 0-27.8-24.2c-5.8-4.3-12-8.3-18-12.5l2 1.8c-1.9-1.2-4.4-1.9-6.4-3a82 82 0 0 1-6.4-4c-4.1-2.7-8.1-5.5-12.3-8.1-4.7-3-9.6-5.6-14.3-8.4a130.6 130.6 0 0 0-12.5-6.9c-2.3-1-4.7-2.3-7-3.4-.8-.3-8.9-5-8.9-5 .5-.3 4.5 1.4 5.2 1.6 1.8.7 3.5 1.6 5.3 2.4a20.2 20.2 0 0 1-2.2-5.5c0-.6-1.1-5-.6-5.4.3-.1 2.8 7.6 3 8.4a12.6 12.6 0 0 0 .3 2c.3 1 .3.7 1 1.2a48.6 48.6 0 0 0 4.9 2.4 36 36 0 0 0 4.9 2.5c4.6 2.1 9.3 5.3 13.7 8a28.1 28.1 0 0 1-2.7-6.3c-.1-.6-1.8-5.2-1.4-5.5.5-.3 3.6 6.8 3.8 7.5.4 1.3.4 2.6.9 3.9.4 1.3 2 1.8 3.2 2.6 5 2.8 9.7 5.9 14.4 9 5-8.2-.8-18.3-5.8-25.3A60.5 60.5 0 0 0 87 141.1c-6.7-5-14.5-9-22.2-12.7a93 93 0 0 0-28.8-8.2 101.4 101.4 0 0 0-16-.4 28.9 28.9 0 0 0-7.7 1.2 25.2 25.2 0 0 0-3.3 1.3c-.8.3-2.7.8-3.2 1.3a20.4 20.4 0 0 0-5.4 14.9 39 39 0 0 0 4.6 15.7 48.5 48.5 0 0 0 11.2 14.5 118.7 118.7 0 0 0 11.7 8.5c14.3 9.6 32.4 18 51 15.8a52.4 52.4 0 0 0 17-5.2l3.7-2c.8-.5 3-2.7 3.7-2.8 1.1-.1 3.5 2 4.5 2.6q11.8 7.2 23 15a311.7 311.7 0 0 1 32.2 25.8c.7.7 2.4 3 3.7 3.1a1.1 1.1 0 0 0 1.2-1.2c-.2-1.2-3-3-3.8-3.9" class="cls-3" transform="translate(0 -24)"/><path id="Fill_10" d="M823.5 209.7a51.5 51.5 0 0 0-10.8-.6 69.3 69.3 0 0 0-49.3 21.5c-10.3 11.2-13.1 25-15.1 39.1l-.4 4.2-.1.8c-.8.7-1.2 1.4-.8 2.3a89.3 89.3 0 0 0-4.5 10.9c-3.7 11-7.5 22.2-5.2 33.7a149.8 149.8 0 0 1 3.1-19.1c0-.4.2-.7.3-1v-.2a40 40 0 0 1 1.9-5.6 18.8 18.8 0 0 1 1-2.3l.2-.5c1.2-2.5 1.6-5.4 2.6-8l.8-1.8 2.4-4.8c.4-.3.7-1 1-1.8a11.2 11.2 0 0 0 1-1.6l1.4-2.6 1.5-2.5c0-.2.2-.4.3-.5l.5-1 5.3-8c.6-.9 2.2-2.2 2.4-3.3a62.3 62.3 0 0 1 14-13.6c-.7.6-2 2.9-2.4 3.3l-3.6 3.9a86.1 86.1 0 0 0-6.3 7 133 133 0 0 0-9.4 14.2v.1c-1.5 1.7-2.4 4.1-3.4 6 4-1.8 8.6-2.9 12.8-4.4a108.6 108.6 0 0 0 12.1-5.3 138.4 138.4 0 0 0 15.6-9.2 60 60 0 0 0 14.6-12.3c5-5.5 9.5-11 12.3-17.8a50.3 50.3 0 0 0 3.2-10.2v-.5a31.5 31.5 0 0 0 1.8-3.7c.8-2 2.6-4.1-.8-4.8" class="cls-4" data-name="Fill 10" transform="translate(-148.1 -42)"/><path id="Leave_the_Leaf_" d="M100.8 234.4zm-7-3.8c.2-.2 2.9 1 3.3 1.1a14 14 0 0 1 3.7 2.7c-.4-.3-7.4-3.2-7-3.8zm19.7-3.3a17 17 0 0 1 2.7 4.8l-1.5-2.9-1.2-2zm-65 11.8c-1 7.2 7.8 11 13.8 13 14.3 5 29.6 3 43.9-1.8a23.4 23.4 0 0 0 9.7-5.9 11.5 11.5 0 0 0 2.9-5.1c.1-.6.6-1.8.3-2.3-.2-.4-.8-.3-1.4-.3l-6.4-.3c-.8 0-2.3-.4-3-.1l-.6.5c-.2.1-.6-.2-.6-.1-.9.4-1.8 1.6-2.4 2.2l-2 1.8a27.5 27.5 0 0 1-2.3 1.7c-.5.3-2 .9-2.3 1.3a24.4 24.4 0 0 1 4.2-4.2 22.7 22.7 0 0 1 2.5-2c.4-.2 2-.9 2-1.3a66.4 66.4 0 0 0-7.1.4 55 55 0 0 1-4 .3 15.8 15.8 0 0 0-3 0c.4-.5 2.7-.7 3.3-.9a31.5 31.5 0 0 1 3.2-.6 60.2 60.2 0 0 1 13.4-.2 52.4 52.4 0 0 1 6.5.4c0-.4.5-.1.9 0l3 .4c1.7.3 3.5.5 5.2.9l5.7 1.1a32.4 32.4 0 0 1 5 1.7c.7.2 1.3.5 2 .9.7.3 3 1 2.3-.6-.5-1-3.8-2-4.6-2.4a31.1 31.1 0 0 0-3.5-1 109.4 109.4 0 0 0-10.8-2.2 374 374 0 0 0-4.2-.7c-1.2-.2-1 .1-1.4-.9l-.3-2a16 16 0 0 0-3.8-6.9 23 23 0 0 0-13.7-6.6 64.8 64.8 0 0 0-27 .9 50.2 50.2 0 0 0-15 7.2 29.8 29.8 0 0 0-6.8 6.3 21.3 21.3 0 0 0-2.3 3.5l-.8 1.9c-.5.7-.4.7-1.3 1-1.2.2-.1 1.3.8 1z" class="cls-1" data-name="Leave the Leaf!" transform="translate(-9.4 -43.4)"/><path id="Background_Shape" d="M72 372.4C-25.3 430 68.1 538 271.6 565.7s440-12 430.3-72.8S169 315 72 372.4z" class="cls-2" data-name="Background Shape" transform="translate(-6.7 -71.7)"/><path id="Container" d="M158.6 35V303a6.4 6.4 0 0 0 6.3 6.4h148a6.4 6.4 0 0 0 6.3-6.4V35a6.4 6.4 0 0 0-6.4-6.4H165a6.4 6.4 0 0 0-6.4 6.4z" class="cls-5" transform="translate(-31.8 -5.6)"/><path id="Touch" d="M254.7 351.1c8.3 0 15.1-6.2 15.1-14s-6.8-14-15.1-14-15.2 6.3-15.2 14 6.8 14 15.2 14z" class="cls-6" transform="translate(-48.1 -64.9)"/><path id="Lens" d="M241.5 50.9a1.9 1.9 0 1 0-2-1.9 2 2 0 0 0 2 1.9z" class="cls-6" transform="translate(-48.1 -9.4)"/><path id="Sensor" d="M250.9 48.7v.6a1.6 1.6 0 0 0 1.6 1.6h18a1.6 1.6 0 0 0 1.6-1.6v-.6a1.6 1.6 0 0 0-1.6-1.6h-18a1.6 1.6 0 0 0-1.6 1.6z" class="cls-6" transform="translate(-50.4 -9.4)"/><path id="Background" d="M176.3 64.3v43.9a3.2 3.2 0 0 0 3.2 3.2h126a3.2 3.2 0 0 0 3.1-3.2V64.3a3.2 3.2 0 0 0-3.2-3.2h-126a3.2 3.2 0 0 0-3.1 3.2z" class="cls-6" transform="translate(-35.4 -12.2)"/><path id="Name" d="M225.6 82.4v2.7a2.4 2.4 0 0 0 2.4 2.4h69a2.4 2.4 0 0 0 2.4-2.4v-2.7A2.4 2.4 0 0 0 297 80h-69a2.4 2.4 0 0 0-2.4 2.4z" class="cls-2" transform="translate(-45.3 -16)"/><path id="Name-2" d="M225.6 98.1v2.8a2.4 2.4 0 0 0 2.4 2.4h44.7a2.4 2.4 0 0 0 2.4-2.4V98a2.4 2.4 0 0 0-2.4-2.4H228a2.4 2.4 0 0 0-2.4 2.4z" class="cls-2" data-name="Name" transform="translate(-45.3 -19.1)"/><path id="Avatar" d="M199.8 101c6.7 0 12-5 12-11.2s-5.3-11.2-12-11.2-12.2 5-12.2 11.2 5.5 11.1 12.2 11.1z" class="cls-7" transform="translate(-37.7 -15.7)"/><path id="Background-2" d="M176.3 136.5v32.7a3.2 3.2 0 0 0 3.2 3.2h126a3.2 3.2 0 0 0 3.1-3.2v-32.7a3.2 3.2 0 0 0-3.2-3.2h-126a3.2 3.2 0 0 0-3.1 3.2z" class="cls-6" data-name="Background" transform="translate(-35.4 -26.7)"/><path id="Name-3" d="M225.6 150.4v1a2.4 2.4 0 0 0 2.4 2.5h69a2.4 2.4 0 0 0 2.4-2.4v-1a2.4 2.4 0 0 0-2.4-2.5h-69a2.4 2.4 0 0 0-2.4 2.4z" class="cls-2" data-name="Name" transform="translate(-45.3 -29.7)"/><path id="Name-4" d="M225.6 162.6v1.1a2.4 2.4 0 0 0 2.4 2.4h44.7a2.4 2.4 0 0 0 2.4-2.4v-1a2.4 2.4 0 0 0-2.4-2.5H228a2.4 2.4 0 0 0-2.4 2.4z" class="cls-2" data-name="Name" transform="translate(-45.3 -32.1)"/><path id="Avatar-2" d="M199.8 166.2c6.7 0 12-5 12-11.2s-5.3-11.2-12-11.2-12.2 5-12.2 11.2 5.5 11.2 12.2 11.2z" class="cls-7" data-name="Avatar" transform="translate(-37.7 -28.8)"/><path id="Background-3" d="M176.3 194.8v32.7a3.2 3.2 0 0 0 3.2 3.2h126a3.2 3.2 0 0 0 3.1-3.2v-32.7a3.2 3.2 0 0 0-3.2-3.2h-126a3.2 3.2 0 0 0-3.1 3.2z" class="cls-6" data-name="Background" transform="translate(-35.4 -38.4)"/><path id="Name-5" d="M225.6 208.6v1.1a2.4 2.4 0 0 0 2.4 2.4h69a2.4 2.4 0 0 0 2.4-2.4v-1a2.4 2.4 0 0 0-2.4-2.5h-69a2.4 2.4 0 0 0-2.4 2.4z" class="cls-2" data-name="Name" transform="translate(-45.3 -41.4)"/><path id="Name-6" d="M225.6 220.9v1a2.4 2.4 0 0 0 2.4 2.4h44.7a2.4 2.4 0 0 0 2.4-2.4v-1a2.4 2.4 0 0 0-2.4-2.4H228a2.4 2.4 0 0 0-2.4 2.4z" class="cls-2" data-name="Name" transform="translate(-45.3 -43.8)"/><path id="Avatar-3" d="M199.8 224.4c6.7 0 12-5 12-11.2s-5.3-11.1-12-11.1-12.2 5-12.2 11.1 5.5 11.2 12.2 11.2z" class="cls-8" data-name="Avatar" transform="translate(-37.7 -40.5)"/><path id="Background-4" d="M176.3 253v32.7a3.2 3.2 0 0 0 3.2 3.2h126a3.2 3.2 0 0 0 3.1-3.2V253a3.2 3.2 0 0 0-3.2-3.2h-126a3.2 3.2 0 0 0-3.1 3.2z" class="cls-6" data-name="Background" transform="translate(-35.4 -50.1)"/><path id="Name-7" d="M225.6 266.9v1a2.4 2.4 0 0 0 2.4 2.5h69a2.4 2.4 0 0 0 2.4-2.4v-1.1a2.4 2.4 0 0 0-2.4-2.4h-69a2.4 2.4 0 0 0-2.4 2.4z" class="cls-2" data-name="Name" transform="translate(-45.3 -53)"/><path id="Name-8" d="M225.6 279.1v1a2.4 2.4 0 0 0 2.4 2.5h44.7a2.4 2.4 0 0 0 2.4-2.4v-1a2.4 2.4 0 0 0-2.4-2.5H228a2.4 2.4 0 0 0-2.4 2.4z" class="cls-2" data-name="Name" transform="translate(-45.3 -55.5)"/><path id="Avatar-4" d="M199.8 282.6c6.7 0 12-5 12-11.1s-5.3-11.2-12-11.2-12.2 5-12.2 11.2 5.5 11.1 12.2 11.1z" class="cls-7" data-name="Avatar" transform="translate(-37.7 -52.2)"/><path id="Fill_16-2" d="M194.6 312.7l-4 .1c-1 0-2.6-.1-3.4.4-1 .6-.9 1.9-.7 2.8a19.3 19.3 0 0 0 6.3 12 38 38 0 0 0 20.4 8.8c5.5.8 10.6-.3 14.7-4a53.9 53.9 0 0 1 6.4 16.5 36.5 36.5 0 0 1 .6 8.4c0 1.9-.2 3.7-.4 5.5 0 .8-.5 2-.2 2.8a1.4 1.4 0 0 0 2.4.2c.5-.7.4-1.9.5-2.6a81 81 0 0 0 .7-9.7 41.5 41.5 0 0 0-2.6-13.3 45.3 45.3 0 0 0-14.7-21.1c-4.4-3.6-9.4-5-15.2-5.7a83.3 83.3 0 0 0-10.8-1" class="cls-1" data-name="Fill 16" transform="translate(-37.4 -62.8)"/><path id="Fill_18" d="M214.2 353.5c-14.4 0-24.1 10.7-28.7 21.8-1.8 4.2-2.2 8.8-2.9 13.3-.2 1.4-.1 3.5-.7 4.8-.2.4-.8.6-.5 1.2a1.1 1.1 0 0 0 .9.7c.9.2 2.2-.7 3-1 6.4-3 10.7-7.7 14.1-13.3a54 54 0 0 0 5.6-11 35.4 35.4 0 0 0 1.5-7.3 25.3 25.3 0 0 0 .2-2.9 5.5 5.5 0 0 0-.8-2.3 23 23 0 0 1 15.1-.4 19 19 0 0 1 10.4 8.7 15.5 15.5 0 0 1 1.3 3.1 10 10 0 0 0 .5 2.3 1.4 1.4 0 0 0 2.7-1 18.5 18.5 0 0 0-6.3-11 23.6 23.6 0 0 0-15.4-5.7" class="cls-1" data-name="Fill 18" transform="translate(-36.4 -71)"/><path id="Container-2" d="M242 65.2v268.2a6.4 6.4 0 0 0 6.4 6.4h147.9a6.4 6.4 0 0 0 6.4-6.4V65.2a6.4 6.4 0 0 0-6.4-6.4H248.4a6.4 6.4 0 0 0-6.4 6.4z" class="cls-2" data-name="Container" transform="translate(-48.6 -11.7)"/><path id="Touch-2" d="M338.1 381.4c8.4 0 15.2-6.3 15.2-14s-6.8-14-15.2-14-15.1 6.3-15.1 14 6.8 14 15.1 14z" class="cls-6" data-name="Touch" transform="translate(-65 -71)"/><path id="Lens-2" d="M325 81.2a1.9 1.9 0 1 0-2-2 2 2 0 0 0 2 2z" class="cls-6" data-name="Lens" transform="translate(-65 -15.5)"/><path id="Sensor-2" d="M334.4 79v.6a1.6 1.6 0 0 0 1.6 1.6h18a1.6 1.6 0 0 0 1.6-1.6V79a1.6 1.6 0 0 0-1.6-1.6h-18a1.6 1.6 0 0 0-1.6 1.6z" class="cls-6" data-name="Sensor" transform="translate(-67.2 -15.5)"/><path id="Container-3" d="M259.7 94.6v43.9a3.2 3.2 0 0 0 3.2 3.2h126a3.2 3.2 0 0 0 3.2-3.2V94.6a3.2 3.2 0 0 0-3.2-3.2H263a3.2 3.2 0 0 0-3.2 3.2z" class="cls-6" data-name="Container" transform="translate(-52.2 -18.3)"/><path id="Label" d="M271.1 112.7v2.7a2.4 2.4 0 0 0 2.4 2.4h69a2.4 2.4 0 0 0 2.4-2.4v-2.7a2.4 2.4 0 0 0-2.4-2.4h-69a2.4 2.4 0 0 0-2.4 2.4z" class="cls-2" transform="translate(-54.5 -22)"/><path id="Label-2" d="M271.1 128.4v2.7a2.4 2.4 0 0 0 2.4 2.4h44.7a2.4 2.4 0 0 0 2.4-2.4v-2.7a2.4 2.4 0 0 0-2.4-2.4h-44.7a2.4 2.4 0 0 0-2.4 2.4z" class="cls-2" data-name="Label" transform="translate(-54.5 -25.2)"/><path id="Background-5" d="M406 127.7a6.5 6.5 0 1 0-7.1-6.5 6.8 6.8 0 0 0 7 6.5z" class="cls-2" data-name="Background" transform="translate(-80.2 -23)"/><path id="Indicator" d="M407 125a2.8 2.8 0 1 0-3-2.8 3 3 0 0 0 3 2.7z" class="cls-5" transform="translate(-81.2 -23.9)"/><path id="Background-6" d="M259.7 166.8v32.7a3.2 3.2 0 0 0 3.2 3.2h126a3.2 3.2 0 0 0 3.2-3.2v-32.7a3.2 3.2 0 0 0-3.2-3.2H263a3.2 3.2 0 0 0-3.2 3.2z" class="cls-6" data-name="Background" transform="translate(-52.2 -32.8)"/><path id="Name-9" d="M309 180.7v1a2.4 2.4 0 0 0 2.5 2.5h69a2.4 2.4 0 0 0 2.3-2.4v-1.1a2.4 2.4 0 0 0-2.4-2.4h-69a2.4 2.4 0 0 0-2.3 2.4z" class="cls-2" data-name="Name" transform="translate(-62.1 -35.7)"/><path id="Name-10" d="M309 193v1a2.4 2.4 0 0 0 2.5 2.4h44.7a2.4 2.4 0 0 0 2.4-2.4v-1a2.4 2.4 0 0 0-2.4-2.5h-44.7a2.4 2.4 0 0 0-2.4 2.4z" class="cls-2" data-name="Name" transform="translate(-62.1 -38.2)"/><path id="Avatar-5" d="M283.2 196.4c6.7 0 12.2-5 12.2-11.1s-5.5-11.2-12.2-11.2-12 5-12 11.2 5.4 11.1 12 11.1z" class="cls-7" data-name="Avatar" transform="translate(-54.5 -34.9)"/><path id="Container-4" d="M259.7 225v32.7a3.2 3.2 0 0 0 3.2 3.2h126a3.2 3.2 0 0 0 3.2-3.2v-32.6a3.2 3.2 0 0 0-3.2-3.2H263a3.2 3.2 0 0 0-3.2 3.2z" class="cls-6" data-name="Container" transform="translate(-52.2 -44.5)"/><path id="Label-3" d="M271.1 239v1a2.4 2.4 0 0 0 2.4 2.4h69a2.4 2.4 0 0 0 2.4-2.4v-1a2.4 2.4 0 0 0-2.4-2.5h-69a2.4 2.4 0 0 0-2.4 2.4z" class="cls-2" data-name="Label" transform="translate(-54.5 -47.5)"/><path id="Label-4" d="M271.1 251.2v1a2.4 2.4 0 0 0 2.4 2.4h44.7a2.4 2.4 0 0 0 2.4-2.4v-1a2.4 2.4 0 0 0-2.4-2.4h-44.7a2.4 2.4 0 0 0-2.4 2.4z" class="cls-8" data-name="Label" transform="translate(-54.5 -50)"/><path id="Background-7" d="M406 251.2a6.5 6.5 0 1 0-7.1-6.5 6.8 6.8 0 0 0 7 6.5z" class="cls-2" data-name="Background" transform="translate(-80.2 -47.8)"/><path id="Indicator-2" d="M407 248.4a2.8 2.8 0 1 0-3-2.8 3 3 0 0 0 3 2.8z" class="cls-5" data-name="Indicator" transform="translate(-81.2 -48.7)"/><path id="Background-8" d="M259.7 283.3V316a3.2 3.2 0 0 0 3.2 3.2h126a3.2 3.2 0 0 0 3.2-3.2v-32.7a3.2 3.2 0 0 0-3.2-3.2H263a3.2 3.2 0 0 0-3.2 3.2z" class="cls-6" data-name="Background" transform="translate(-52.2 -56.2)"/><path id="Name-11" d="M309 297.2v1a2.4 2.4 0 0 0 2.5 2.4h69a2.4 2.4 0 0 0 2.3-2.4v-1a2.4 2.4 0 0 0-2.4-2.4h-69a2.4 2.4 0 0 0-2.3 2.4z" class="cls-2" data-name="Name" transform="translate(-62.1 -59.2)"/><path id="Name-12" d="M309 309.4v1a2.4 2.4 0 0 0 2.5 2.5h44.7a2.4 2.4 0 0 0 2.4-2.4v-1.1a2.4 2.4 0 0 0-2.4-2.4h-44.7a2.4 2.4 0 0 0-2.4 2.4z" class="cls-2" data-name="Name" transform="translate(-62.1 -61.6)"/><path id="Avatar-6" d="M283.2 313c6.7 0 12.2-5 12.2-11.3s-5.5-11.1-12.2-11.1-12 5-12 11.1 5.4 11.2 12 11.2z" class="cls-7" data-name="Avatar" transform="translate(-54.5 -58.3)"/><path id="Container-5" d="M325.5 94.3v309.2a6.4 6.4 0 0 0 6.4 6.4h325.7a6.4 6.4 0 0 0 6.4-6.4V94.3a6.4 6.4 0 0 0-6.4-6.4H332a6.4 6.4 0 0 0-6.4 6.4z" class="cls-5" data-name="Container" transform="translate(-65.4 -17.6)"/><path id="Background-9" d="M640.5 144.4V207a6.4 6.4 0 0 0 6.4 6.4h57.9a6.4 6.4 0 0 0 6.4-6.4v-62.6a6.4 6.4 0 0 0-6.4-6.4h-58a6.4 6.4 0 0 0-6.3 6.4z" class="cls-6" data-name="Background" transform="translate(-128.8 -27.6)"/><path id="Avatar-7" d="M680.7 185.2c8.9 0 16.1-6.6 16.1-14.8s-7.2-15-16.1-15-16.2 6.7-16.2 15 7.2 14.8 16.2 14.8z" class="cls-2" data-name="Avatar" transform="translate(-133.6 -31.2)"/><path id="Name-13" d="M653.1 200.2a2.8 2.8 0 0 0 2.8 2.8h45a2.8 2.8 0 0 0 2.7-2.8 2.8 2.8 0 0 0-2.8-2.8H656a2.8 2.8 0 0 0-2.8 2.8z" class="cls-2" data-name="Name" transform="translate(-131.3 -39.6)"/><path id="Name-14" d="M663.2 211.8a2.8 2.8 0 0 0 2.8 2.8h28.8a2.8 2.8 0 0 0 2.8-2.8 2.8 2.8 0 0 0-2.8-2.8H666a2.8 2.8 0 0 0-2.8 2.8z" class="cls-2" data-name="Name" transform="translate(-133.3 -42)"/><path id="Header" d="M325.5 94.3V113H664V94.3a6.4 6.4 0 0 0-6.4-6.4H332a6.4 6.4 0 0 0-6.4 6.4z" class="cls-7" transform="translate(-65.4 -17.6)"/><path id="buttons" d="M341 107a3.7 3.7 0 1 0-4.1-3.7 3.9 3.9 0 0 0 4 3.7z" class="cls-5" transform="translate(-67.7 -20)"/><path id="buttons-2" d="M356.1 107a3.7 3.7 0 1 0-4-3.7 3.9 3.9 0 0 0 4 3.7z" class="cls-5" data-name="buttons" transform="translate(-70.8 -20)"/><path id="buttons-3" d="M371.3 107a3.7 3.7 0 1 0-4-3.7 3.9 3.9 0 0 0 4 3.7z" class="cls-5" data-name="buttons" transform="translate(-73.8 -20)"/><path id="Background-10" d="M640.5 248v167.8a6.4 6.4 0 0 0 6.4 6.4h57.9a6.4 6.4 0 0 0 6.4-6.4V248a6.4 6.4 0 0 0-6.4-6.4h-58a6.4 6.4 0 0 0-6.3 6.4z" class="cls-6" data-name="Background" transform="translate(-128.8 -48.5)"/><path id="Data" d="M663.2 265.8v17.8a3.2 3.2 0 0 0 3.2 3.2h28a3.2 3.2 0 0 0 3.2-3.2v-17.8a3.2 3.2 0 0 0-3.2-3.2h-28a3.2 3.2 0 0 0-3.2 3.2z" class="cls-2" transform="translate(-133.3 -52.7)"/><path id="Data-2" d="M663.2 305.4v16.9a3.2 3.2 0 0 0 3.2 3.2h28a3.2 3.2 0 0 0 3.2-3.2v-16.9a3.2 3.2 0 0 0-3.2-3.2h-28a3.2 3.2 0 0 0-3.2 3.2z" class="cls-8" data-name="Data" transform="translate(-133.3 -60.7)"/><path id="Data-3" d="M663.2 343.9v16.8a3.2 3.2 0 0 0 3.2 3.2h28a3.2 3.2 0 0 0 3.2-3.2V344a3.2 3.2 0 0 0-3.2-3.2h-28a3.2 3.2 0 0 0-3.2 3.2z" class="cls-2" data-name="Data" transform="translate(-133.3 -68.4)"/><path id="Data-4" d="M663.2 420.7v16.9a3.2 3.2 0 0 0 3.2 3.2h28a3.2 3.2 0 0 0 3.2-3.2v-16.9a3.2 3.2 0 0 0-3.2-3.2h-28a3.2 3.2 0 0 0-3.2 3.2z" class="cls-2" data-name="Data" transform="translate(-133.3 -83.9)"/><path id="Data-5" d="M663.2 382.3v16.9a3.2 3.2 0 0 0 3.2 3.2h28a3.2 3.2 0 0 0 3.2-3.2v-17a3.2 3.2 0 0 0-3.2-3.1h-28a3.2 3.2 0 0 0-3.2 3.2z" class="cls-7" data-name="Data" transform="translate(-133.3 -76.1)"/><path id="Container-6" d="M345.8 142.4v37.3a3.2 3.2 0 0 0 3.1 3.2h221a3.2 3.2 0 0 0 3.2-3.2v-37.3a3.2 3.2 0 0 0-3.2-3.2H349a3.2 3.2 0 0 0-3.2 3.2z" class="cls-6" data-name="Container" transform="translate(-69.5 -27.9)"/><path id="Label-5" d="M357.1 158v1.8a2.4 2.4 0 0 0 2.4 2.4h164a2.4 2.4 0 0 0 2.4-2.4V158a2.4 2.4 0 0 0-2.4-2.4h-164a2.4 2.4 0 0 0-2.4 2.4z" class="cls-2" data-name="Label" transform="translate(-71.8 -31.2)"/><path id="Label-6" d="M357.1 171.7v1.7a2.4 2.4 0 0 0 2.4 2.4H468a2.4 2.4 0 0 0 2.4-2.4v-1.7a2.4 2.4 0 0 0-2.4-2.4H359.5a2.4 2.4 0 0 0-2.4 2.4z" class="cls-2" data-name="Label" transform="translate(-71.8 -34)"/><path id="Background-11" d="M598.1 171.4a6.5 6.5 0 1 0-7-6.5 6.8 6.8 0 0 0 7 6.5z" class="cls-2" data-name="Background" transform="translate(-118.8 -31.7)"/><path id="Indicator-3" d="M599.2 168.6a2.8 2.8 0 1 0-3-2.8 3 3 0 0 0 3 2.8z" class="cls-5" data-name="Indicator" transform="translate(-119.8 -32.7)"/><path id="Container-7" d="M345.8 206.4v30a3.2 3.2 0 0 0 3.1 3.1h221a3.2 3.2 0 0 0 3.2-3.2v-29.9a3.2 3.2 0 0 0-3.2-3.2H349a3.2 3.2 0 0 0-3.2 3.2z" class="cls-6" data-name="Container" transform="translate(-69.5 -40.8)"/><path id="Label-7" d="M357.1 219.2v.7a2.4 2.4 0 0 0 2.4 2.4h164a2.4 2.4 0 0 0 2.4-2.4v-.7a2.4 2.4 0 0 0-2.4-2.4h-164a2.4 2.4 0 0 0-2.4 2.4z" class="cls-2" data-name="Label" transform="translate(-71.8 -43.5)"/><path id="Label-8" d="M357.1 230.6v.7a2.4 2.4 0 0 0 2.4 2.4H468a2.4 2.4 0 0 0 2.4-2.4v-.7a2.4 2.4 0 0 0-2.4-2.4H359.5a2.4 2.4 0 0 0-2.4 2.4z" class="cls-2" data-name="Label" transform="translate(-71.8 -45.8)"/><path id="Background-12" d="M598.1 230.8a6.5 6.5 0 1 0-7-6.5 6.8 6.8 0 0 0 7 6.5z" class="cls-2" data-name="Background" transform="translate(-118.8 -43.7)"/><path id="Indicator-4" d="M599.2 228a2.8 2.8 0 1 0-3-2.8 3 3 0 0 0 3 2.8z" class="cls-5" data-name="Indicator" transform="translate(-119.8 -44.6)"/><path id="Container-8" d="M345.8 261.2V291a3.2 3.2 0 0 0 3.1 3.1h221a3.2 3.2 0 0 0 3.2-3.1v-30a3.2 3.2 0 0 0-3.2-3.1H349a3.2 3.2 0 0 0-3.2 3.2z" class="cls-6" data-name="Container" transform="translate(-69.5 -51.8)"/><path id="Label-9" d="M357.1 274v.6a2.4 2.4 0 0 0 2.4 2.4h164a2.4 2.4 0 0 0 2.4-2.4v-.6a2.4 2.4 0 0 0-2.4-2.4h-164a2.4 2.4 0 0 0-2.4 2.4z" class="cls-2" data-name="Label" transform="translate(-71.8 -54.5)"/><path id="Label-10" d="M357.1 285.3v.7a2.4 2.4 0 0 0 2.4 2.4H468a2.4 2.4 0 0 0 2.4-2.4v-.7a2.4 2.4 0 0 0-2.4-2.4H359.5a2.4 2.4 0 0 0-2.4 2.4z" class="cls-2" data-name="Label" transform="translate(-71.8 -56.8)"/><path id="Background-13" d="M598.1 285.6a6.5 6.5 0 1 0-7-6.6 6.8 6.8 0 0 0 7 6.6z" class="cls-2" data-name="Background" transform="translate(-118.8 -54.7)"/><path id="Indicator-5" d="M599.2 282.8a2.8 2.8 0 1 0-3-2.8 3 3 0 0 0 3 2.8z" class="cls-8" data-name="Indicator" transform="translate(-119.8 -55.6)"/><path id="Container-9" d="M345.8 425.4v29.9a3.2 3.2 0 0 0 3.1 3.2h221a3.2 3.2 0 0 0 3.2-3.2v-30a3.2 3.2 0 0 0-3.2-3.1H349a3.2 3.2 0 0 0-3.2 3.2z" class="cls-6" data-name="Container" transform="translate(-69.5 -84.8)"/><path id="Label-11" d="M357.1 438.2v.7a2.4 2.4 0 0 0 2.4 2.4h164a2.4 2.4 0 0 0 2.4-2.4v-.7a2.4 2.4 0 0 0-2.4-2.4h-164a2.4 2.4 0 0 0-2.4 2.4z" class="cls-2" data-name="Label" transform="translate(-71.8 -87.5)"/><path id="Label-12" d="M357.1 449.6v.6a2.4 2.4 0 0 0 2.4 2.4H468a2.4 2.4 0 0 0 2.4-2.4v-.6a2.4 2.4 0 0 0-2.4-2.4H359.5a2.4 2.4 0 0 0-2.4 2.4z" class="cls-2" data-name="Label" transform="translate(-71.8 -89.8)"/><path id="Background-14" d="M598.1 449.8a6.5 6.5 0 1 0-7-6.5 6.8 6.8 0 0 0 7 6.5z" class="cls-2" data-name="Background" transform="translate(-118.8 -87.7)"/><path id="Indicator-6" d="M599.2 447a2.8 2.8 0 1 0-3-2.8 3 3 0 0 0 3 2.8z" class="cls-5" data-name="Indicator" transform="translate(-119.8 -88.7)"/><path id="Container-10" d="M345.8 370.6v30a3.2 3.2 0 0 0 3.1 3.1h221a3.2 3.2 0 0 0 3.2-3.2v-29.9a3.2 3.2 0 0 0-3.2-3.2H349a3.2 3.2 0 0 0-3.2 3.2z" class="cls-6" data-name="Container" transform="translate(-69.5 -73.8)"/><path id="Label-13" d="M357.1 383.5v.6a2.4 2.4 0 0 0 2.4 2.4h164a2.4 2.4 0 0 0 2.4-2.4v-.6a2.4 2.4 0 0 0-2.4-2.4h-164a2.4 2.4 0 0 0-2.4 2.4z" class="cls-2" data-name="Label" transform="translate(-71.8 -76.5)"/><path id="Label-14" d="M357.1 394.8v.7a2.4 2.4 0 0 0 2.4 2.4H468a2.4 2.4 0 0 0 2.4-2.4v-.7a2.4 2.4 0 0 0-2.4-2.4H359.5a2.4 2.4 0 0 0-2.4 2.4z" class="cls-2" data-name="Label" transform="translate(-71.8 -78.8)"/><path id="Background-15" d="M598.1 395a6.5 6.5 0 1 0-7-6.5 6.8 6.8 0 0 0 7 6.5z" class="cls-2" data-name="Background" transform="translate(-118.8 -76.7)"/><path id="Indicator-7" d="M599.2 392.2a2.8 2.8 0 1 0-3-2.7 3 3 0 0 0 3 2.7z" class="cls-5" data-name="Indicator" transform="translate(-119.8 -77.7)"/><path id="Container-11" d="M345.8 316v29.8a3.2 3.2 0 0 0 3.1 3.2h221a3.2 3.2 0 0 0 3.2-3.2v-29.9a3.2 3.2 0 0 0-3.2-3.2H349a3.2 3.2 0 0 0-3.2 3.2z" class="cls-6" data-name="Container" transform="translate(-69.5 -62.8)"/><path id="Label-15" d="M357.1 328.7v.7a2.4 2.4 0 0 0 2.4 2.4h164a2.4 2.4 0 0 0 2.4-2.4v-.7a2.4 2.4 0 0 0-2.4-2.4h-164a2.4 2.4 0 0 0-2.4 2.4z" class="cls-2" data-name="Label" transform="translate(-71.8 -65.5)"/><path id="Label-16" d="M357.1 340v.7a2.4 2.4 0 0 0 2.4 2.4H468a2.4 2.4 0 0 0 2.4-2.4v-.6a2.4 2.4 0 0 0-2.4-2.4H359.5a2.4 2.4 0 0 0-2.4 2.4z" class="cls-2" data-name="Label" transform="translate(-71.8 -67.8)"/><path id="Background-16" d="M598.1 340.3a6.5 6.5 0 1 0-7-6.5 6.8 6.8 0 0 0 7 6.5z" class="cls-2" data-name="Background" transform="translate(-118.8 -65.7)"/><path id="Indicator-8" d="M599.2 337.5a2.8 2.8 0 1 0-3-2.8 3 3 0 0 0 3 2.8z" class="cls-5" data-name="Indicator" transform="translate(-119.8 -66.6)"/><path id="Fill_1" d="M821.7 285.6a27 27 0 0 0-14.1-3.2 97 97 0 0 0-51.3 15.9 116.7 116.7 0 0 0-22.2 18.7 54.6 54.6 0 0 0-9.5 13 42.3 42.3 0 0 0-3.5 10.1 96 96 0 0 0-2 12.8c-.1 1.7-1.2 10.7 1.9 10.9a3.2 3.2 0 0 0 0 .6 132.8 132.8 0 0 0-14.6 31.4 201.1 201.1 0 0 0-8.1 28.1 283.2 283.2 0 0 0-5 38.1l-.4 8.3-.2 7c-.1 2.6-.6 5.7-.2 8.3.4 2.3 2.6 2 2.6-.4.2-2.7.1-5.4.3-8.2l.5-10.8a237 237 0 0 1 15.7-74 166.5 166.5 0 0 1 13.6-27.6 192.7 192.7 0 0 1 16.7-22.5c5.9-6.8 12-13.5 19-19.4a146.5 146.5 0 0 1 18.7-12.6c8.4-4.9 16.6-9.6 25.7-13.4 4.6-2 9.4-3.6 14.1-5.5l2.6-1c2.7-1.3 1.8-3.3-.3-4.6" class="cls-3" data-name="Fill 1" transform="translate(-139.2 -56.7)"/><path id="Fill_20" d="M749.3 396.6a46.6 46.6 0 0 0-30.5 11.8 39.3 39.3 0 0 0-12.8 23.2l-.7 4.8c-.1.6-1 5 1.1 3.5 1-.6 1-4.3 1.1-5.4l1-4.8a42.4 42.4 0 0 1 40.6-31.2c-1.3 1.3 2.2 2.4 3 3a15.7 15.7 0 0 1 3.7 4.1 106.9 106.9 0 0 1 5.4 9.6c3.7 6.8 6.2 14.2 10.4 20.7a41.8 41.8 0 0 0 9.8 10.6c3.3 2.5 7.3 5.1 11.7 5.7 7 1 12.4-3.7 14.3-9.4 1.7-4.9-.1-11.2-2.6-15.7-4.1-7.4-10-13-17.5-17.9a96.7 96.7 0 0 0-16.8-9 55.3 55.3 0 0 0-21.3-3.6" class="cls-1" data-name="Fill 20" transform="translate(-141.7 -79.6)"/><path id="Fill_19" d="M116.6 449.5c2 6 3.9 12 5.6 18.1-14.8-16.6-35.7-27.7-56-38 2.8 2 6 5.7 7.8 7.3 5 4.2 10 8.4 14.9 12.8a139.6 139.6 0 0 1 23.2 27 146.2 146.2 0 0 1 16.8 34.8c1.1 3.4 2.4 7.5 3.6 11.8q.5 6.6.6 13.2l-.5 7a103.8 103.8 0 0 1-2.7 15.9 774.3 774.3 0 0 1 2.1-7.3c-.2 2.7.4 8.5-.4 12a190.5 190.5 0 0 0 10.5-38c1.6-1.7 3-3.2 4-4.5a79.5 79.5 0 0 1 15.5-15.4c8.4-5.9 26.2-11.2 36.1-5.4-12.6-7.2-27-9.7-40-1.2-6 3.9-10.5 9.5-14 15.7v-1.1c12.1-32.6 30-64.4 60-82.6a91.9 91.9 0 0 0-54 46l5.6-17.7c7.6-24 12.3-51.9 25.5-74-2.4 3.6-8.6 7.9-11.3 11.5a122.9 122.9 0 0 0-11 18.3A217.4 217.4 0 0 0 143 457l-.9 3.5q-1.2-7.8-3-15.6c-9-39.7-21.4-78.4-34.2-117.2l1 5.9 3.9 16a1175.2 1175.2 0 0 1 20.6 100.5c-13.2-31.8-35.2-60-54-89.1a402.2 402.2 0 0 1 40.3 88.4z" class="cls-2" data-name="Fill 19" transform="translate(-13.3 -65.8)"/><path id="Base" d="M104.2 576c0 33.3 2.8 60.4 41.4 60.4s41.4-27 41.4-60.5" class="cls-7" transform="translate(-20.9 -115.7)"/><path id="Value" d="M641.7 40.6v17.7a2.8 2.8 0 0 0 2.8 2.8h.5a2.8 2.8 0 0 0 2.8-2.8V40.6a2.8 2.8 0 0 0-2.8-2.8h-.5a2.8 2.8 0 0 0-2.8 2.8z" class="cls-2" transform="translate(-129 -7.5)"/><path id="Value-2" d="M659.4 22v32.6a2.8 2.8 0 0 0 2.8 2.8h.5a2.8 2.8 0 0 0 2.8-2.8V22a2.8 2.8 0 0 0-2.8-2.8h-.5a2.8 2.8 0 0 0-2.8 2.8z" class="cls-2" data-name="Value" transform="translate(-132.6 -3.7)"/><path id="Value-3" d="M677.1 12.7v40a2.8 2.8 0 0 0 2.8 2.8h.5a2.8 2.8 0 0 0 2.8-2.8v-40a2.8 2.8 0 0 0-2.8-2.8h-.5a2.8 2.8 0 0 0-2.8 2.8z" class="cls-2" data-name="Value" transform="translate(-136.1 -1.9)"/><path id="Value-4" d="M694.9 22v32.6a2.8 2.8 0 0 0 2.8 2.8h.4a2.8 2.8 0 0 0 2.8-2.8V22a2.8 2.8 0 0 0-2.8-2.8h-.5a2.8 2.8 0 0 0-2.8 2.8z" class="cls-2" data-name="Value" transform="translate(-139.7 -3.7)"/><path id="Value-5" d="M712.6 3.4v47.4a2.8 2.8 0 0 0 2.8 2.8h.4a2.8 2.8 0 0 0 2.8-2.8V3.4a2.8 2.8 0 0 0-2.8-2.8h-.4a2.8 2.8 0 0 0-2.8 2.8z" class="cls-7" data-name="Value" transform="translate(-143.3)"/><path id="Value-6" d="M25.8 366.2l13.8-13.7v-18.8c-11 0-20.2 8.5-20.2 18.8a18 18 0 0 0 6.4 13.7z" class="cls-5" data-name="Value" transform="translate(-3.9 -67)"/><path id="Value-7" d="M26.6 370.5a21.9 21.9 0 0 0 14 5 21.4 21.4 0 0 0 14.8-5.8 17.9 17.9 0 0 0 5.5-12.7H40.5z" class="cls-8" data-name="Value" transform="translate(-5.3 -71.7)"/><path id="Value-8" d="M39.6 352.3v-18.6c11.1 0 20.2 8.3 20.2 18.6zm-10-18.6l8 16.7-18.2-7.4a18 18 0 0 1 10.1-9.3z" class="cls-7" data-name="Value" transform="translate(-3.9 -67)"/><path id="Value-9" d="M833 359a11 11 0 0 1-7.8 3c-5.9 0-10.6-4.3-10.6-9.7s4.7-9.8 10.6-9.8v-18.1c-16.7 0-30.4 12.5-30.4 27.9s13.7 27.9 30.4 27.9a31.3 31.3 0 0 0 22.1-8.8z" class="cls-5" data-name="Value" transform="translate(-159.8 -65.1)"/><path id="Value-10" d="M832.7 324.4v18c5.9 0 10.6 4.5 10.6 9.9H863c0-15.4-13.6-28-30.3-28z" class="cls-8" data-name="Value" transform="translate(-167.4 -65.1)"/><path id="Value-11" d="M844.5 359.3a9.6 9.6 0 0 1-4.2 7.8l12.4 14.5a27.6 27.6 0 0 0 11.9-22.3z" class="cls-7" data-name="Value" transform="translate(-169 -72.1)"/><path id="Value-12" d="M594 39.9a8.5 8.5 0 0 1-6 2.4c-4.6 0-8.2-3.4-8.2-7.5s3.6-7.5 8.2-7.5v-14c-12.9 0-23.4 9.7-23.4 21.5S575 56.2 588 56.2a24 24 0 0 0 17-6.8z" class="cls-5" data-name="Value" transform="translate(-113.5 -2.6)"/><path id="Value-13" d="M593.7 13.4v13.9c4.4 0 8 3.3 8 7.5H617c0-11.8-10.5-21.4-23.2-21.4z" class="cls-8" data-name="Value" transform="translate(-119.3 -2.6)"/><path id="Value-14" d="M603.1 40.2A7.2 7.2 0 0 1 600 46l9.3 10.9a20.7 20.7 0 0 0 8.9-16.7z" class="cls-7" data-name="Value" transform="translate(-120.6 -8)"/><path id="Fill_35" d="M140.8 67" class="cls-7" data-name="Fill 35" transform="translate(-28.3 -13.3)"/><path id="Fill_37" d="M140.8 67" class="cls-7" data-name="Fill 37" transform="translate(-28.3 -13.3)"/><path id="Fill_39" d="M140.9 66.8c-.1.2-.2.5 0 0" class="cls-7" data-name="Fill 39" transform="translate(-28.3 -13.3)"/><path id="Fill_41" d="M140.9 66.9" class="cls-7" data-name="Fill 41" transform="translate(-28.3 -13.3)"/><path id="Fill_45" d="M140.8 67" class="cls-7" data-name="Fill 45" transform="translate(-28.3 -13.4)"/><path id="Fill_47" d="M140.8 67s0-.1 0 0" class="cls-7" data-name="Fill 47" transform="translate(-28.3 -13.3)"/><path id="Fill_49" d="M140.8 67" class="cls-7" data-name="Fill 49" transform="translate(-28.3 -13.4)"/><path id="Photo_Background" d="M80.1 9.6v52.2a3.2 3.2 0 0 0 3.2 3.2H173a3.2 3.2 0 0 0 3.2-3.2V9.6a3.2 3.2 0 0 0-3.2-3.2H83.3a3.2 3.2 0 0 0-3.2 3.2z" class="cls-2" data-name="Photo Background" transform="translate(-16 -1.2)"/><path id="Mountains" d="M118.5 27.4L90.2 69.2h56.6z" class="cls-8" transform="translate(-18.1 -5.4)"/><path id="Mountains-2" d="M154.2 41.3L129.5 72H179z" class="cls-7" data-name="Mountains" transform="translate(-26 -8.2)"/><path id="Sun" d="M171.4 37.1c5 0 9.1-3.7 9.1-8.4s-4-8.3-9-8.3-9.1 3.7-9.1 8.3 4 8.4 9 8.4z" class="cls-6" transform="translate(-32.6 -4)"/><path id="Fill_35-2" d="M744.2 564.3" class="cls-7" data-name="Fill 35" transform="translate(-149.6 -113.4)"/><path id="Fill_37-2" d="M744.2 564.3" class="cls-7" data-name="Fill 37" transform="translate(-149.6 -113.4)"/><path id="Fill_39-2" d="M744.1 564v.2c.2.4.1.1 0-.1" class="cls-7" data-name="Fill 39" transform="translate(-149.6 -113.3)"/><path id="Fill_41-2" d="M744.2 564.2c0 .2 0 0 0 0" class="cls-7" data-name="Fill 41" transform="translate(-149.6 -113.4)"/><path id="Fill_45-2" d="M744.2 564.3" class="cls-7" data-name="Fill 45" transform="translate(-149.6 -113.4)"/><path id="Fill_47-2" d="M744.2 564.3c0-.1 0 0 0 0" class="cls-7" data-name="Fill 47" transform="translate(-149.6 -113.4)"/><path id="Fill_49-2" d="M744.2 564.3" class="cls-7" data-name="Fill 49" transform="translate(-149.6 -113.4)"/><path id="Photo_Background-2" d="M794.7 474.6H657.6a3.2 3.2 0 0 0-3.2 3.2v81a3.2 3.2 0 0 0 3.2 3.3h137a3.2 3.2 0 0 0 3.3-3.2v-81.1a3.2 3.2 0 0 0-3.2-3.2z" class="cls-2" data-name="Photo Background" transform="translate(-131.6 -95.3)"/><path id="Mountains-3" d="M715.4 568.4h83L756.8 506z" class="cls-8" data-name="Mountains" transform="translate(-143.8 -101.7)"/><path id="Mountains-4" d="M667.9 572.6h73.3L704.5 527z" class="cls-7" data-name="Mountains" transform="translate(-134.3 -105.9)"/><path id="Sun-2" d="M704.4 508.1c0-7-6-12.5-13.6-12.5S677 501.2 677 508s6.2 12.6 13.7 12.6 13.6-5.6 13.6-12.6z" class="cls-6" data-name="Sun" transform="translate(-136.1 -99.6)"/><path id="Head" d="M261.3 400.4l-6-42.2h-6.5l-9 42.2zm12.7-57.3c-5.2-9.7-32-14-33.3 5.2s24.5 32.5 31.2 30.8 7.3-26.3 2.1-36z" class="cls-9" transform="translate(-48.2 -67.2)"/><path id="hair" d="M227.5 338.3c-2.3.1-5 1.2-6.3 3.4-1.6 3 .7 6.4 3.1 7.7-4.4 4 3.6 9.3 6.9 9.5-.6 2.4 2.2 3.2 3.7 3.9a3.2 3.2 0 0 0-.1 4.2 4 4 0 0 0 4.9.4c.4-.3.4-.6.7-.9.2-.2.6-.2.8-.3a3.3 3.3 0 0 0 1.7-1.9c.7-1.5 1-3.3 2.1-4.5-1.5-.7-3.3-1.2-4.3-2.8-1.7-2.6.2-6.2 2.9-6.9 2.4-.6 5.2.7 6.7 2.7a11.6 11.6 0 0 1 2.3-3.8c.6-.7 1.7-1.7.2-2-3.1-.9-6.4-1.2-9.6-2 3.3 0 6.6.4 9.9.1 1 0 2-.2 2.6-1.3a12.6 12.6 0 0 0 1-4.5 9.6 9.6 0 0 0 3.4 1l1.4-.2a1.6 1.6 0 0 1 1.2.5 11.4 11.4 0 0 0 5.2 2.8 12.6 12.6 0 0 0 3.5.4 1.9 1.9 0 0 0 .4-.1 5.7 5.7 0 0 1 1 0 3 3 0 0 0 2.2-.6 2.5 2.5 0 0 0-.7-4.1 19.4 19.4 0 0 0 3.8-3.7 13.9 13.9 0 0 0 1.4-2.1 2.4 2.4 0 0 0 .4-1.6c-.4-1.5-3.4-.6-4.3-.2a3.2 3.2 0 0 1 0-1 2 2 0 0 0-.1-1 2 2 0 0 0-1.1-1 5 5 0 0 0-2-.5c-.3 0-1 .2-1.2-.2a2.6 2.6 0 0 1 0-1.2c.2-.6.3-1.1.3-1.7l.2-2.4a6.1 6.1 0 0 0 0-1.7c-.3-1.6-2-1.6-3-1.4a6.5 6.5 0 0 0-2.3 1l-1.4 1c-.3.3-.6.6-1 .4-.7-.5-1.2-1.8-1.8-2.6a6 6 0 0 0-2.6-1.9 6.9 6.9 0 0 0-6.4 1.1 8 8 0 0 0-1.2 1c-.3.4-.5.7-1 .6a3.6 3.6 0 0 1-1-.6l-1.4-.8a9.3 9.3 0 0 0-5.7-1.2 6.3 6.3 0 0 0-4.7 3 12.8 12.8 0 0 0-1.5 6.4l-2.8-1.4a8.3 8.3 0 0 0-3.2-.4 6.8 6.8 0 0 0-4.5 2c-1.5 1.5-1.5 3.8-1 5.8a27 27 0 0 0 .9 3 6.8 6.8 0 0 0 1.4 2.6" class="cls-10" transform="translate(-44.3 -63.6)"/><path id="Seat_Stuff" d="M169 670h103.2l-9-111.5h-69.4z" class="cls-7" data-name="Seat Stuff" transform="translate(-34 -112.2)"/><path id="Seat_Stuff-2" fill="rgba(0,0,0,.1)" d="M169 670H228L215 558.4h-21.3z" data-name="Seat Stuff" transform="translate(-34 -112.2)"/><path id="Skin" d="M319.8 635.9c2.8-5 47.1-75.8 53.6-93.7 3-7.8-14.9-22-23.2-8.4a559.5 559.5 0 0 0-20.8 40.7c-7.8 16.5-16.9 45.7-20 56.7-1.8 6.9 7.6 9.7 10.4 4.7zm52.1 19.3c.9-5.6 18.2-95.2 18.3-114.2 0-8.4-21.6-15.7-24.8 0-1.3 6.5-3.7 24.6-5.6 45.3-1.6 18.3 0 57.6 1 69 .5 7 10.2 5.6 11 0z" class="cls-12" transform="translate(-62.1 -106.1)"/><path id="LegLower" fill="#1f28cf" d="M333.3 624.3c2-5.3 35.4-63.6 42-81.7 3-7.9-21-24.4-29.4-10.7-3.6 5.8-31.6 73.3-35.5 84.1-1.9 7 21 13.7 23 8.3z" transform="translate(-62.4 -105.8)"/><path id="shoe" d="M307.5 649s-4.6 3.5-5.8 5.6-5.3 5.2-2.9 6.6l43.9 25.3s5-4.7 1.5-7.3l-5.6-4.3-15.7-21.6-3.9 3s-4.3-.4-6.4-1.6-5-5.8-5-5.8z" class="cls-14" transform="translate(-59.9 -130.4)"/><path id="shoe-2" d="M371 678.2s-2.2 5.5-2.2 7.9-2 7 .8 7h50.6s2-6.4-2.3-7l-7-1-24.4-10.8-1.8 4.5s-4 1.9-6.4 1.9-7.3-2.5-7.3-2.5z" class="cls-14" data-name="shoe" transform="translate(-74 -135.5)"/><path id="Leg_and_Butt" fill="#2b44ff" d="M363.6 527.9c-21-4-77.6-15.4-88.5-16.6h-53.3c1 31.5 12 48.5 39 48.5 18.6 0 80.8-7 82.4-6.2s-3.8 75.2-3.8 75.2h24.3c0-5.2 11.4-60.9 11.4-84.7 0-6.6-2.5-14.6-11.5-16.2z" data-name="Leg and Butt" transform="translate(-44.6 -102.7)"/><path id="Shirt" d="M211.5 508.2c9.7 25.6 71.7 24 88.8-11.5-45.8-19.8-17.6-56-28.7-73.6-7-11.4-7.8-14.6-7.8-28.8-4.7-12.3-19.6-14.5-25.1-3.8-13 12.5-16 61.1-16.4 76.6s-10.8 28.3-10.8 41.1zm26-117.7c-14.4 45.7-15 82.7 27.4 115.8 2-18.1 7-35.6 6.8-36-16-20.4-29-34.7-23.2-74.7-1-.8-10-4.2-11-5.1z" class="cls-3" transform="translate(-42.5 -77)"/><path id="Skin-2" d="M282.3 505l3.3-17.3q20 22.7 23.2 23c3.9.3 6.8-3.2 7.6-2.2 1.4 4-2.5 14.2-9.8 15.6-3.5.7-9-6.5-11.2-9q-1.3-1.6-13-10z" class="cls-9" data-name="Skin" transform="translate(-56.7 -92.2)"/><path id="Shade" fill="rgba(0,0,0,.2)" d="M264 511.4c-39.2-27.5-39.2-60.8-27.5-98.2-8.8 36.7-5.3 67.6 28 95.7l-.4 2.5z" transform="translate(-46.1 -83)"/><path id="Head-2" d="M591.7 329.5l-9-42.3h-6.5l-6 42.3zm-32-21.3c6.6 1.7 32.4-11.6 31.1-30.8s-28.1-15-33.3-5.3-4.6 34.3 2.1 36z" class="cls-12" data-name="Head" transform="translate(-111.4 -53)"/><path id="hair-2" d="M558.1 258.9c-1.2 2.6-.4 5.9 4.5 5.6 5 5.9 12.1 10 13 10 0 0 3.2-4.3 6.2-2.5 3.5 2.1 2.9 6 1 9-1 1.7-2.5 4 0 5.9 4 2.9 14.2-3.6 16-9 3-10.2-1.3-24-12.5-26 .6-2 3.3-2.8 5.2-3.1 4.4-1 9 0 13.4 1 5.3 1 10.7 2.8 16.1 2.8a23.6 23.6 0 0 0 8.2-1.5 34.6 34.6 0 0 0 7.3-4.1c2.3-1.6 4.8-1.2 7.3-.5a39.6 39.6 0 0 1 7.4 3c5.1 2.6 9.8 5.8 15.2 7.7a40.8 40.8 0 0 0 12.7 2.3c7.4.2 16.4-1.4 21.2-7.7 3.4-4.4 3.4-9.7 1.3-14.7a23.4 23.4 0 0 0-9.2-10.5 30.3 30.3 0 0 0-14.4-5.4c-5.6-.5-11 1.4-15.7 4.3-4.7 2.8-8.8 5.8-14.3 6.7a34.6 34.6 0 0 1-16.1-1.6c-5.5-1.8-10.7-3.7-16.5-4.2a34 34 0 0 0-16.1 2.3 22.4 22.4 0 0 0-10.6 9.6 27.5 27.5 0 0 0-2.9 7.3l-.6 2.7c-.1.8 0 1.9-.4 2.6-.5.8-1.5.6-2.4.6-1.4 0-9 .3-12 .8-3.8.6-11.1 4-12.3 6.6z" class="cls-10" data-name="hair" transform="translate(-112.1 -44.4)"/><path id="Leg" fill="#997659" d="M557.7 441l-17.3 204.7h12.8l16.4-94L603.4 441z" transform="translate(-108.6 -88.6)"/><path id="Leg-2" d="M570.6 441q19.6 87.2 24 99.4c3.1 8.1 12 40.4 38.4 102.4l13.6 4.8C630 579.9 623 544 622.5 538.6s-3.3-36.9-1-97.6z" class="cls-12" data-name="Leg" transform="translate(-114.7 -88.6)"/><path id="shoe-3" d="M645 692.7c-2.5 0-6.4-1.8-6.4-1.8l-1.9-4.5-24.3 10.9-7 .9c-4.3.5-2.4 7-2.4 7h50.7c2.8 0 .8-4.6.8-7s-2.3-8-2.3-8-4.7 2.5-7.2 2.5z" class="cls-14" data-name="shoe" transform="translate(-121.1 -138)"/><path id="shoe-4" d="M539.4 692.7c-2.5 0-6.4-1.8-6.4-1.8l-1.9-4.5-24.3 10.9-7 .9c-4.3.5-2.4 7-2.4 7h50.7c2.8 0 .8-4.6.8-7s-2.3-8-2.3-8-4.7 2.5-7.2 2.5z" class="cls-14" data-name="shoe" transform="translate(-100 -138)"/><path id="Bottom" d="M558.5 441l-6.5 56.4h43.8l14.4-56.4z" class="cls-4" transform="translate(-111 -88.6)"/><path id="Bottom-2" d="M566.9 439.4l12.3 56.4h44.7s4.4-35.1-2.7-56.4c-14.2-14-54.3 0-54.3 0z" class="cls-1" data-name="Bottom" transform="translate(-114 -87)"/><path id="Skin-3" d="M503.4 427l-21.8 28.2A77.2 77.2 0 0 0 465 468c-.8 1.4-1.6 4 3.2 2.2s9.9-3.5 11-2-1.2 4.3.8 6.2q2 1.9 9.7-15l24-19.1zM604 390.5c16 38.2 32.3 68.8 34.2 72 2.8 4.8-.5 13.2-1.8 17.6 6.5 1.9 4.4-8 12.6-5.6 7.4 2.3 13.6 7.4 21 1.3.8-.7 1.6-3.2-1.3-4.6a84.9 84.9 0 0 1-19.3-12.5c-3.4-5-17.3-38-26-71z" class="cls-12" data-name="Skin" transform="translate(-93.3 -77.8)"/><path id="Clothes_Back" fill="#db2721" d="M561 328.8l-8-.2c-6 44.5-64.2 82.4-65.8 99-.6 6 4 8.4 2.2 10.5l11 5.9c1.4-2.3 5.5.8 12.7-2.7s55-61.8 47.9-112.5z" data-name="Clothes Back" transform="translate(-98 -66)"/><path id="Clothes_Front" fill="#ff4133" d="M582 317.6c-7.3-9.3-27.6-31.4-22.2 7.2 12.3 61.5-21.2 81.1-10.3 103.6 8.7 18 69.2 30 76.7 10.2 13.5-36-22.3-97.5-44.2-121zm-3 5.6c20.2 25.2 45 76 58.3 106.9 4 9 14 9 14.6 12.7 16 23.6 17.2 16.4 12.6-5.5-1.6-4.8 4.2-8 1-18.7-22.8-76.4-53-80.4-81.4-101.3zm6.9-10.5l-24.5 5.2a3.2 3.2 0 0 0-2.5 3.8l2.6 12.2a3.2 3.2 0 0 0 3.8 2.4l24.5-5.2a3.2 3.2 0 0 0 2.5-3.8l-2.6-12.1a3.2 3.2 0 0 0-3.8-2.5z" data-name="Clothes Front" transform="translate(-110 -60.8)"/></g></svg>